<?xml version="1.0"?>
<svg xmlns="http://www.w3.org/2000/svg" xmlns:xlink="http://www.w3.org/1999/xlink" contentStyleType="text/css" height="1020px" preserveAspectRatio="none" style="width:1446px;height:1020px;background:#FFFFFF;" version="1.1" viewBox="0 0 1446 1020" width="1446px" zoomAndPan="magnify">
  <defs/>
  <g>
    <rect fill="#ADD8E6" height="1008.4923" style="stroke:#181818;stroke-width:0.5;" width="366.2929" x="1" y="6"/>
    <text fill="#000000" font-family="sans-serif" font-size="13" font-weight="bold" lengthAdjust="spacing" textLength="189.7189" x="89.287" y="19.897">Dummy repository on GitHub</text>
    <rect fill="#CCEECC" height="1008.4923" style="stroke:#181818;stroke-width:0.5;" width="263.0431" x="376.1472" y="6"/>
    <text fill="#000000" font-family="sans-serif" font-size="13" font-weight="bold" lengthAdjust="spacing" textLength="87.0091" x="464.1642" y="19.897">LCore tooling</text>
    <rect fill="#FFFFE0" height="1008.4923" style="stroke:#181818;stroke-width:0.5;" width="133.3177" x="641.1903" y="6"/>
    <text fill="#000000" font-family="sans-serif" font-size="13" font-weight="bold" lengthAdjust="spacing" textLength="21.19" x="697.2542" y="19.897">Jira</text>
    <rect fill="#FFCCCC" height="1008.4923" style="stroke:#181818;stroke-width:0.5;" width="244.6732" x="776.508" y="6"/>
    <text fill="#000000" font-family="sans-serif" font-size="13" font-weight="bold" lengthAdjust="spacing" textLength="87.2268" x="855.2312" y="19.897">Red Hat Slack</text>
    <rect fill="#CCCCEE" height="1008.4923" style="stroke:#181818;stroke-width:0.5;" width="295.3902" x="1023.1812" y="6"/>
    <text fill="#000000" font-family="sans-serif" font-size="13" font-weight="bold" lengthAdjust="spacing" textLength="92.0011" x="1124.8757" y="19.897">RHOAI tooling</text>
    <rect fill="none" height="51.412" style="stroke:#000000;stroke-width:1.5;" width="410.3608" x="370.1472" y="330.716"/>
    <rect fill="none" height="51.412" style="stroke:#000000;stroke-width:1.5;" width="621.7712" x="702.8002" y="720.4822"/>
    <line style="stroke:#181818;stroke-width:0.5;stroke-dasharray:5.0,5.0;" x1="69" x2="69" y1="78.7739" y2="960.4243"/>
    <line style="stroke:#181818;stroke-width:0.5;stroke-dasharray:5.0,5.0;" x1="192.611" x2="192.611" y1="78.7739" y2="960.4243"/>
    <line style="stroke:#181818;stroke-width:0.5;stroke-dasharray:5.0,5.0;" x1="329.6371" x2="329.6371" y1="78.7739" y2="960.4243"/>
    <line style="stroke:#181818;stroke-width:0.5;stroke-dasharray:5.0,5.0;" x1="432.1472" x2="432.1472" y1="78.7739" y2="960.4243"/>
    <line style="stroke:#181818;stroke-width:0.5;stroke-dasharray:5.0,5.0;" x1="564.2249" x2="564.2249" y1="78.7739" y2="960.4243"/>
    <line style="stroke:#181818;stroke-width:0.5;stroke-dasharray:5.0,5.0;" x1="673.1903" x2="673.1903" y1="78.7739" y2="960.4243"/>
    <line style="stroke:#181818;stroke-width:0.5;stroke-dasharray:5.0,5.0;" x1="740.8002" x2="740.8002" y1="78.7739" y2="960.4243"/>
    <line style="stroke:#181818;stroke-width:0.5;stroke-dasharray:5.0,5.0;" x1="836.508" x2="836.508" y1="78.7739" y2="960.4243"/>
    <line style="stroke:#181818;stroke-width:0.5;stroke-dasharray:5.0,5.0;" x1="959.7956" x2="959.7956" y1="78.7739" y2="960.4243"/>
    <line style="stroke:#181818;stroke-width:0.5;stroke-dasharray:5.0,5.0;" x1="1091.1812" x2="1091.1812" y1="78.7739" y2="960.4243"/>
    <line style="stroke:#181818;stroke-width:0.5;stroke-dasharray:5.0,5.0;" x1="1257.5618" x2="1257.5618" y1="78.7739" y2="960.4243"/>
    <rect fill="#E2E2F0" height="33.0679" style="stroke:#181818;stroke-width:0.5;" width="124.8936" x="9" y="40.706"/>
    <rect fill="#E2E2F0" height="33.0679" style="stroke:#181818;stroke-width:0.5;" width="124.8936" x="5" y="44.706"/>
    <text fill="#000000" font-family="sans-serif" font-size="14" lengthAdjust="spacing" textLength="110.8936" x="12" y="66.672">requirements.txt</text>
    <rect fill="#E2E2F0" height="33.0679" style="stroke:#181818;stroke-width:0.5;" width="124.8936" x="9" y="959.4243"/>
    <rect fill="#E2E2F0" height="33.0679" style="stroke:#181818;stroke-width:0.5;" width="124.8936" x="5" y="963.4243"/>
    <text fill="#000000" font-family="sans-serif" font-size="14" lengthAdjust="spacing" textLength="110.8936" x="12" y="985.3903">requirements.txt</text>
    <text fill="#000000" font-family="sans-serif" font-size="14" lengthAdjust="spacing" textLength="81.8717" x="149.611" y="74.672">Dependabot</text>
    <ellipse cx="193.5469" cy="43.706" fill="#E2E2F0" rx="12" ry="12" style="stroke:#181818;stroke-width:0.5;"/>
    <line style="stroke:#181818;stroke-width:0.5;" x1="181.5469" x2="205.5469" y1="57.706" y2="57.706"/>
    <text fill="#000000" font-family="sans-serif" font-size="14" lengthAdjust="spacing" textLength="81.8717" x="149.611" y="974.3903">Dependabot</text>
    <ellipse cx="193.5469" cy="994.4923" fill="#E2E2F0" rx="12" ry="12" style="stroke:#181818;stroke-width:0.5;"/>
    <line style="stroke:#181818;stroke-width:0.5;" x1="181.5469" x2="205.5469" y1="1008.4923" y2="1008.4923"/>
    <rect fill="#E2E2F0" height="33.0679" style="stroke:#181818;stroke-width:0.5;" width="61.6558" x="301.6371" y="40.706"/>
    <rect fill="#E2E2F0" height="33.0679" style="stroke:#181818;stroke-width:0.5;" width="61.6558" x="297.6371" y="44.706"/>
    <text fill="#000000" font-family="sans-serif" font-size="14" lengthAdjust="spacing" textLength="47.6558" x="304.6371" y="66.672">CVE list</text>
    <rect fill="#E2E2F0" height="33.0679" style="stroke:#181818;stroke-width:0.5;" width="61.6558" x="301.6371" y="959.4243"/>
    <rect fill="#E2E2F0" height="33.0679" style="stroke:#181818;stroke-width:0.5;" width="61.6558" x="297.6371" y="963.4243"/>
    <text fill="#000000" font-family="sans-serif" font-size="14" lengthAdjust="spacing" textLength="47.6558" x="304.6371" y="985.3903">CVE list</text>
    <text fill="#000000" font-family="sans-serif" font-size="14" lengthAdjust="spacing" textLength="99.0776" x="380.1472" y="74.672">File JIRAs script</text>
    <ellipse cx="432.686" cy="43.706" fill="#E2E2F0" rx="12" ry="12" style="stroke:#181818;stroke-width:0.5;"/>
    <line style="stroke:#181818;stroke-width:0.5;" x1="420.686" x2="444.686" y1="57.706" y2="57.706"/>
    <text fill="#000000" font-family="sans-serif" font-size="14" lengthAdjust="spacing" textLength="99.0776" x="380.1472" y="974.3903">File JIRAs script</text>
    <ellipse cx="432.686" cy="994.4923" fill="#E2E2F0" rx="12" ry="12" style="stroke:#181818;stroke-width:0.5;"/>
    <line style="stroke:#181818;stroke-width:0.5;" x1="420.686" x2="444.686" y1="1008.4923" y2="1008.4923"/>
    <text fill="#000000" font-family="sans-serif" font-size="14" lengthAdjust="spacing" textLength="133.9655" x="495.2249" y="74.672">refresh_package_list</text>
    <ellipse cx="565.2076" cy="43.706" fill="#E2E2F0" rx="12" ry="12" style="stroke:#181818;stroke-width:0.5;"/>
    <line style="stroke:#181818;stroke-width:0.5;" x1="553.2076" x2="577.2076" y1="57.706" y2="57.706"/>
    <text fill="#000000" font-family="sans-serif" font-size="14" lengthAdjust="spacing" textLength="133.9655" x="495.2249" y="974.3903">refresh_package_list</text>
    <ellipse cx="565.2076" cy="994.4923" fill="#E2E2F0" rx="12" ry="12" style="stroke:#181818;stroke-width:0.5;"/>
    <line style="stroke:#181818;stroke-width:0.5;" x1="553.2076" x2="577.2076" y1="1008.4923" y2="1008.4923"/>
    <rect fill="#E2E2F0" height="33.0679" rx="2.5" ry="2.5" style="stroke:#181818;stroke-width:0.5;" width="57.6098" x="645.1903" y="44.706"/>
    <text fill="#000000" font-family="sans-serif" font-size="14" lengthAdjust="spacing" textLength="43.6098" x="652.1903" y="66.672">LCORE</text>
    <rect fill="#E2E2F0" height="33.0679" rx="2.5" ry="2.5" style="stroke:#181818;stroke-width:0.5;" width="57.6098" x="645.1903" y="959.4243"/>
    <text fill="#000000" font-family="sans-serif" font-size="14" lengthAdjust="spacing" textLength="43.6098" x="652.1903" y="981.3903">LCORE</text>
    <rect fill="#E2E2F0" height="33.0679" rx="2.5" ry="2.5" style="stroke:#181818;stroke-width:0.5;" width="57.7078" x="712.8002" y="44.706"/>
    <text fill="#000000" font-family="sans-serif" font-size="14" lengthAdjust="spacing" textLength="43.7078" x="719.8002" y="66.672">RHOAI</text>
    <rect fill="#E2E2F0" height="33.0679" rx="2.5" ry="2.5" style="stroke:#181818;stroke-width:0.5;" width="57.7078" x="712.8002" y="959.4243"/>
    <text fill="#000000" font-family="sans-serif" font-size="14" lengthAdjust="spacing" textLength="43.7078" x="719.8002" y="981.3903">RHOAI</text>
    <rect fill="#E2E2F0" height="33.0679" rx="2.5" ry="2.5" style="stroke:#181818;stroke-width:0.5;" width="113.2876" x="780.508" y="44.706"/>
    <text fill="#000000" font-family="sans-serif" font-size="14" lengthAdjust="spacing" textLength="99.2876" x="787.508" y="66.672">LCORE channel</text>
    <rect fill="#E2E2F0" height="33.0679" rx="2.5" ry="2.5" style="stroke:#181818;stroke-width:0.5;" width="113.2876" x="780.508" y="959.4243"/>
    <text fill="#000000" font-family="sans-serif" font-size="14" lengthAdjust="spacing" textLength="99.2876" x="787.508" y="981.3903">LCORE channel</text>
    <rect fill="#E2E2F0" height="33.0679" rx="2.5" ry="2.5" style="stroke:#181818;stroke-width:0.5;" width="113.3856" x="903.7956" y="44.706"/>
    <text fill="#000000" font-family="sans-serif" font-size="14" lengthAdjust="spacing" textLength="99.3856" x="910.7956" y="66.672">RHOAI channel</text>
    <rect fill="#E2E2F0" height="33.0679" rx="2.5" ry="2.5" style="stroke:#181818;stroke-width:0.5;" width="113.3856" x="903.7956" y="959.4243"/>
    <text fill="#000000" font-family="sans-serif" font-size="14" lengthAdjust="spacing" textLength="99.3856" x="910.7956" y="981.3903">RHOAI channel</text>
    <text fill="#000000" font-family="sans-serif" font-size="14" lengthAdjust="spacing" textLength="123.6755" x="1027.1812" y="74.672">package_bump_up</text>
    <ellipse cx="1092.0189" cy="43.706" fill="#E2E2F0" rx="12" ry="12" style="stroke:#181818;stroke-width:0.5;"/>
    <line style="stroke:#181818;stroke-width:0.5;" x1="1080.0189" x2="1104.0189" y1="57.706" y2="57.706"/>
    <text fill="#000000" font-family="sans-serif" font-size="14" lengthAdjust="spacing" textLength="123.6755" x="1027.1812" y="974.3903">package_bump_up</text>
    <ellipse cx="1092.0189" cy="994.4923" fill="#E2E2F0" rx="12" ry="12" style="stroke:#181818;stroke-width:0.5;"/>
    <line style="stroke:#181818;stroke-width:0.5;" x1="1080.0189" x2="1104.0189" y1="1008.4923" y2="1008.4923"/>
    <text fill="#000000" font-family="sans-serif" font-size="14" lengthAdjust="spacing" textLength="108.0096" x="1200.5618" y="74.672">package_rebuild</text>
    <ellipse cx="1257.5666" cy="43.706" fill="#E2E2F0" rx="12" ry="12" style="stroke:#181818;stroke-width:0.5;"/>
    <line style="stroke:#181818;stroke-width:0.5;" x1="1245.5666" x2="1269.5666" y1="57.706" y2="57.706"/>
    <text fill="#000000" font-family="sans-serif" font-size="14" lengthAdjust="spacing" textLength="108.0096" x="1200.5618" y="974.3903">package_rebuild</text>
    <ellipse cx="1257.5666" cy="994.4923" fill="#E2E2F0" rx="12" ry="12" style="stroke:#181818;stroke-width:0.5;"/>
    <line style="stroke:#181818;stroke-width:0.5;" x1="1245.5666" x2="1269.5666" y1="1008.4923" y2="1008.4923"/>
    <polygon fill="#181818" points="80.4468,108.4799,70.4468,112.4799,80.4468,116.4799,76.4468,112.4799" style="stroke:#181818;stroke-width:1.0;"/>
    <line style="stroke:#181818;stroke-width:1.0;" x1="74.4468" x2="192.5469" y1="112.4799" y2="112.4799"/>
    <text fill="#000000" font-family="sans-serif" font-size="13" lengthAdjust="spacing" textLength="100.1001" x="86.4468" y="106.6709">detect new CVEs</text>
    <polygon fill="#181818" points="318.465,140.186,328.465,144.186,318.465,148.186,322.465,144.186" style="stroke:#181818;stroke-width:1.0;"/>
    <line style="stroke:#181818;stroke-width:1.0;" x1="193.5469" x2="324.465" y1="144.186" y2="144.186"/>
    <text fill="#000000" font-family="sans-serif" font-size="13" lengthAdjust="spacing" textLength="112.9181" x="200.5469" y="138.377">update list of CVEs</text>
    <polygon fill="#181818" points="341.465,171.892,331.465,175.892,341.465,179.892,337.465,175.892" style="stroke:#181818;stroke-width:1.0;"/>
    <line style="stroke:#181818;stroke-width:1.0;" x1="335.465" x2="431.686" y1="175.892" y2="175.892"/>
    <text fill="#000000" font-family="sans-serif" font-size="13" lengthAdjust="spacing" textLength="78.2211" x="347.465" y="170.083">read all CVEs</text>
    <polygon fill="#181818" points="661.9952,203.598,671.9952,207.598,661.9952,211.598,665.9952,207.598" style="stroke:#181818;stroke-width:1.0;"/>
    <line style="stroke:#181818;stroke-width:1.0;" x1="432.686" x2="667.9952" y1="207.598" y2="207.598"/>
    <text fill="#000000" font-family="sans-serif" font-size="13" lengthAdjust="spacing" textLength="120.0161" x="439.686" y="201.789">read existing issues</text>
    <polygon fill="#181818" points="443.686,235.304,433.686,239.304,443.686,243.304,439.686,239.304" style="stroke:#181818;stroke-width:1.0;"/>
    <line style="stroke:#181818;stroke-width:1.0;" x1="437.686" x2="672.9952" y1="239.304" y2="239.304"/>
    <text fill="#000000" font-family="sans-serif" font-size="13" lengthAdjust="spacing" textLength="120.0161" x="449.686" y="233.495">read existing issues</text>
    <line style="stroke:#181818;stroke-width:1.0;" x1="432.686" x2="474.686" y1="271.01" y2="271.01"/>
    <line style="stroke:#181818;stroke-width:1.0;" x1="474.686" x2="474.686" y1="271.01" y2="284.01"/>
    <line style="stroke:#181818;stroke-width:1.0;" x1="433.686" x2="474.686" y1="284.01" y2="284.01"/>
    <polygon fill="#181818" points="443.686,280.01,433.686,284.01,443.686,288.01,439.686,284.01" style="stroke:#181818;stroke-width:1.0;"/>
    <text fill="#000000" font-family="sans-serif" font-size="13" lengthAdjust="spacing" textLength="108.0301" x="439.686" y="265.201">detect new issues</text>
    <polygon fill="#181818" points="661.9952,311.716,671.9952,315.716,661.9952,319.716,665.9952,315.716" style="stroke:#181818;stroke-width:1.0;"/>
    <line style="stroke:#181818;stroke-width:1.0;" x1="432.686" x2="667.9952" y1="315.716" y2="315.716"/>
    <text fill="#000000" font-family="sans-serif" font-size="13" lengthAdjust="spacing" textLength="102.8301" x="439.686" y="309.907">create new Issue</text>
    <path d="M370.1472,330.716 L436.919,330.716 L436.919,340.4221 L426.919,350.4221 L370.1472,350.4221 L370.1472,330.716 " fill="#EEEEEE" style="stroke:#000000;stroke-width:1.5;"/>
    <rect fill="none" height="51.412" style="stroke:#000000;stroke-width:1.5;" width="410.3608" x="370.1472" y="330.716"/>
    <text fill="#000000" font-family="sans-serif" font-size="13" font-weight="bold" lengthAdjust="spacing" textLength="21.7718" x="385.1472" y="345.6131">opt</text>
    <text fill="#000000" font-family="sans-serif" font-size="11" font-weight="bold" lengthAdjust="spacing" textLength="53.3661" x="451.919" y="344.475">[optional]</text>
    <polygon fill="#181818" points="729.6541,370.1281,739.6541,374.1281,729.6541,378.1281,733.6541,374.1281" style="stroke:#181818;stroke-width:1.0;"/>
    <line style="stroke:#181818;stroke-width:1.0;" x1="432.686" x2="735.6541" y1="374.1281" y2="374.1281"/>
    <text fill="#000000" font-family="sans-serif" font-size="13" lengthAdjust="spacing" textLength="102.8301" x="439.686" y="368.3191">create new Issue</text>
    <polygon fill="#181818" points="825.1518,408.8341,835.1518,412.8341,825.1518,416.8341,829.1518,412.8341" style="stroke:#181818;stroke-width:1.0;"/>
    <line style="stroke:#181818;stroke-width:1.0;" x1="432.686" x2="831.1518" y1="412.8341" y2="412.8341"/>
    <text fill="#000000" font-family="sans-serif" font-size="13" lengthAdjust="spacing" textLength="204.9972" x="439.686" y="407.0251">send notification about new issue</text>
    <polygon fill="#181818" points="948.4884,440.5401,958.4884,444.5401,948.4884,448.5401,952.4884,444.5401" style="stroke:#181818;stroke-width:1.0;"/>
    <line style="stroke:#181818;stroke-width:1.0;" x1="432.686" x2="954.4884" y1="444.5401" y2="444.5401"/>
    <text fill="#000000" font-family="sans-serif" font-size="13" lengthAdjust="spacing" textLength="204.9972" x="439.686" y="438.7311">send notification about new issue</text>
    <polygon fill="#181818" points="1080.0189,472.2461,1090.0189,476.2461,1080.0189,480.2461,1084.0189,476.2461" style="stroke:#181818;stroke-width:1.0;"/>
    <line style="stroke:#181818;stroke-width:1.0;" x1="960.4884" x2="1086.0189" y1="476.2461" y2="476.2461"/>
    <text fill="#000000" font-family="sans-serif" font-size="13" lengthAdjust="spacing" textLength="82.9661" x="967.4884" y="470.4371">trigger action</text>
    <line style="stroke:#181818;stroke-width:1.0;" x1="1092.0189" x2="1134.0189" y1="507.9521" y2="507.9521"/>
    <line style="stroke:#181818;stroke-width:1.0;" x1="1134.0189" x2="1134.0189" y1="507.9521" y2="520.9521"/>
    <line style="stroke:#181818;stroke-width:1.0;" x1="1093.0189" x2="1134.0189" y1="520.9521" y2="520.9521"/>
    <polygon fill="#181818" points="1103.0189,516.9521,1093.0189,520.9521,1103.0189,524.9521,1099.0189,520.9521" style="stroke:#181818;stroke-width:1.0;"/>
    <text fill="#000000" font-family="sans-serif" font-size="13" lengthAdjust="spacing" textLength="146.7181" x="1099.0189" y="502.1431">resolve package version</text>
    <polygon fill="#181818" points="1245.5666,548.6582,1255.5666,552.6582,1245.5666,556.6582,1249.5666,552.6582" style="stroke:#181818;stroke-width:1.0;"/>
    <line style="stroke:#181818;stroke-width:1.0;" x1="1092.0189" x2="1251.5666" y1="552.6582" y2="552.6582"/>
    <text fill="#000000" font-family="sans-serif" font-size="13" lengthAdjust="spacing" textLength="88.9201" x="1099.0189" y="546.8492">trigger rebuild</text>
    <line style="stroke:#181818;stroke-width:1.0;" x1="1257.5666" x2="1299.5666" y1="584.3642" y2="584.3642"/>
    <line style="stroke:#181818;stroke-width:1.0;" x1="1299.5666" x2="1299.5666" y1="584.3642" y2="597.3642"/>
    <line style="stroke:#181818;stroke-width:1.0;" x1="1258.5666" x2="1299.5666" y1="597.3642" y2="597.3642"/>
    <polygon fill="#181818" points="1268.5666,593.3642,1258.5666,597.3642,1268.5666,601.3642,1264.5666,597.3642" style="stroke:#181818;stroke-width:1.0;"/>
    <text fill="#000000" font-family="sans-serif" font-size="13" lengthAdjust="spacing" textLength="175.0321" x="1264.5666" y="578.5552">rebuild new package version</text>
    <line style="stroke:#181818;stroke-width:1.0;" x1="1257.5666" x2="1299.5666" y1="629.0702" y2="629.0702"/>
    <line style="stroke:#181818;stroke-width:1.0;" x1="1299.5666" x2="1299.5666" y1="629.0702" y2="642.0702"/>
    <line style="stroke:#181818;stroke-width:1.0;" x1="1258.5666" x2="1299.5666" y1="642.0702" y2="642.0702"/>
    <polygon fill="#181818" points="1268.5666,638.0702,1258.5666,642.0702,1268.5666,646.0702,1264.5666,642.0702" style="stroke:#181818;stroke-width:1.0;"/>
    <text fill="#000000" font-family="sans-serif" font-size="13" lengthAdjust="spacing" textLength="162.4352" x="1264.5666" y="623.2612">push package into registry</text>
    <polygon fill="#181818" points="971.4884,669.7762,961.4884,673.7762,971.4884,677.7762,967.4884,673.7762" style="stroke:#181818;stroke-width:1.0;"/>
    <line style="stroke:#181818;stroke-width:1.0;" x1="965.4884" x2="1256.5666" y1="673.7762" y2="673.7762"/>
    <text fill="#000000" font-family="sans-serif" font-size="13" lengthAdjust="spacing" textLength="273.0782" x="977.4884" y="667.9672">send notification about new package version</text>
    <polygon fill="#181818" points="848.1518,701.4822,838.1518,705.4822,848.1518,709.4822,844.1518,705.4822" style="stroke:#181818;stroke-width:1.0;"/>
    <line style="stroke:#181818;stroke-width:1.0;" x1="842.1518" x2="1256.5666" y1="705.4822" y2="705.4822"/>
    <text fill="#000000" font-family="sans-serif" font-size="13" lengthAdjust="spacing" textLength="273.0782" x="854.1518" y="699.6732">send notification about new package version</text>
    <path d="M702.8002,720.4822 L769.5719,720.4822 L769.5719,730.1882 L759.5719,740.1882 L702.8002,740.1882 L702.8002,720.4822 " fill="#EEEEEE" style="stroke:#000000;stroke-width:1.5;"/>
    <rect fill="none" height="51.412" style="stroke:#000000;stroke-width:1.5;" width="621.7712" x="702.8002" y="720.4822"/>
    <text fill="#000000" font-family="sans-serif" font-size="13" font-weight="bold" lengthAdjust="spacing" textLength="21.7718" x="717.8002" y="735.3792">opt</text>
    <text fill="#000000" font-family="sans-serif" font-size="11" font-weight="bold" lengthAdjust="spacing" textLength="53.3661" x="784.5719" y="734.2411">[optional]</text>
    <polygon fill="#181818" points="752.6541,759.8943,742.6541,763.8943,752.6541,767.8943,748.6541,763.8943" style="stroke:#181818;stroke-width:1.0;"/>
    <line style="stroke:#181818;stroke-width:1.0;" x1="746.6541" x2="1256.5666" y1="763.8943" y2="763.8943"/>
    <text fill="#000000" font-family="sans-serif" font-size="13" lengthAdjust="spacing" textLength="66.0921" x="758.6541" y="758.0853">update jira</text>
    <polygon fill="#181818" points="576.2076,798.6003,566.2076,802.6003,576.2076,806.6003,572.2076,802.6003" style="stroke:#181818;stroke-width:1.0;"/>
    <line style="stroke:#181818;stroke-width:1.0;" x1="570.2076" x2="1256.5666" y1="802.6003" y2="802.6003"/>
    <text fill="#000000" font-family="sans-serif" font-size="13" lengthAdjust="spacing" textLength="158.1321" x="582.2076" y="796.7913">new package is in registry</text>
    <line style="stroke:#181818;stroke-width:1.0;" x1="565.2076" x2="607.2076" y1="834.3063" y2="834.3063"/>
    <line style="stroke:#181818;stroke-width:1.0;" x1="607.2076" x2="607.2076" y1="834.3063" y2="847.3063"/>
    <line style="stroke:#181818;stroke-width:1.0;" x1="566.2076" x2="607.2076" y1="847.3063" y2="847.3063"/>
    <polygon fill="#181818" points="576.2076,843.3063,566.2076,847.3063,576.2076,851.3063,572.2076,847.3063" style="stroke:#181818;stroke-width:1.0;"/>
    <text fill="#000000" font-family="sans-serif" font-size="13" lengthAdjust="spacing" textLength="65.1431" x="572.2076" y="828.4973">refresh list</text>
    <polygon fill="#181818" points="661.9952,875.0123,671.9952,879.0123,661.9952,883.0123,665.9952,879.0123" style="stroke:#181818;stroke-width:1.0;"/>
    <line style="stroke:#181818;stroke-width:1.0;" x1="565.2076" x2="667.9952" y1="879.0123" y2="879.0123"/>
    <text fill="#000000" font-family="sans-serif" font-size="13" lengthAdjust="spacing" textLength="66.287" x="572.2076" y="873.2033">update Jira</text>
    <polygon fill="#181818" points="825.1518,906.7183,835.1518,910.7183,825.1518,914.7183,829.1518,910.7183" style="stroke:#181818;stroke-width:1.0;"/>
    <line style="stroke:#181818;stroke-width:1.0;" x1="565.2076" x2="831.1518" y1="910.7183" y2="910.7183"/>
    <text fill="#000000" font-family="sans-serif" font-size="13" lengthAdjust="spacing" textLength="146.4191" x="572.2076" y="904.9093">info about new package</text>
    <polygon fill="#181818" points="80.4468,938.4243,70.4468,942.4243,80.4468,946.4243,76.4468,942.4243" style="stroke:#181818;stroke-width:1.0;"/>
    <line style="stroke:#181818;stroke-width:1.0;" x1="74.4468" x2="564.2076" y1="942.4243" y2="942.4243"/>
    <text fill="#000000" font-family="sans-serif" font-size="13" lengthAdjust="spacing" textLength="118.8201" x="86.4468" y="936.6153">update package list</text>
    <!--SRC=[bLNBRjim4BphAnRkkVs070harTf1W00kKA0dWw9MCbkQPFXmxB_lKez8bAayVAHcTcPtXtIfJx2w2uV36ImQxOJNzWnQmK_Xrw5SmPT7qUpzZGnO0FsubXAv5revM5by3iBY0PLtt_p9hu0vC58utsBfMFWptA51LR5I-yiAjx_l8U9R9Z_YhYKJ74fzAeeokdkyrHR1Qos5QiWGvuYSJnLMFuH4UDXihnquReNfwjLqklihB7C9s69jqUrtXl5_hEaaMtpkmypB0rKRPl87fTGlRMd3h1TS6APyzFkqlMyBIaxEMmUNgEtwwNhJoUur4nqg5TjY1MlcuPSaGwHQrvptZLyA0jypfL1EXFkJ1Us4q7aO23CRBNew_xY1PAJ3nCfmCBjWkXoaPrcynJ88MINu_cmqCUO7ldxluWLNKA6d58725w0GkHbgY181WwcOnpPbeEiEF2PZ1hR8Ac1Ivc3ZDdiSdeX4Cm7XN41NZ8087yaByBJw53xfhSSkMY7FdAfJWn6zYUX26-hKn1l6ul9JwfYs79L6cDVgeq4S5nUZj1Uru2oA00qzJDmMES7Fy8kK4fUUPecgU2kQ1YsmzYKfve1BJbo2q_A8mmSuedMH-nQv3-EeDwHp1iXoXc-nixdeH_WckFqhKIYlgM936RBd73qPsjjZ_e2PPEkVgpQB7y2YsUukzHTqU02plMLUvgj4N3YQq3YV766vK7_QlX6BrEdrxot7VuDtyAyJ5AhMbqDRP9lqzHhQZAV_0G00]-->
  </g>
</svg>
